Coordinates
version=1
nRows=9
nColumns=42
inDegrees=yes

Units are S.I. units (second, meters, Newtons, ...)
If the header above contains a line with 'inDegrees', this indicates whether rotational values are in degrees (yes) or radians (no).

endheader
time	pelvis_tilt	pelvis_list	pelvis_rotation	pelvis_tx	pelvis_ty	pelvis_tz	hip_flexion_r	hip_adduction_r	hip_rotation_r	knee_angle_r	knee_adduction_r	knee_angle_r_beta	ankle_angle_r	subtalar_angle_r	mtp_angle_r	hip_flexion_l	hip_adduction_l	hip_rotation_l	knee_angle_l	knee_adduction_l	knee_angle_l_beta	ankle_angle_l	subtalar_angle_l	mtp_angle_l	lumbar_extension	lumbar_bending	lumbar_rotation	arm_flex_r	arm_add_r	arm_rot_r	elbow_flex_r	pro_sup_r	wrist_flex_r	wrist_dev_r	arm_flex_l	arm_add_l	arm_rot_l	elbow_flex_l	pro_sup_l	wrist_flex_l	wrist_dev_l
      1.16000000	     11.08956280	      0.40799831	     -4.39265580	     -0.25171188	      0.98334461	      0.26918386	     11.04072494	     -2.77096533	     -9.50335104	     48.84037143	     -4.90806295	      0.85242529	     16.49340951	     -5.48939989	     -7.55399835	    -11.91161487	      5.91773505	    -21.38895563	      8.68649781	     -4.17907418	      0.15160799	     18.37994648	     32.71880214	     -7.55399835	    -24.96318849	      1.38277750	     -4.58693339	     -9.55497387	    -10.02197726	      6.49310661	     31.01758769	     90.00000001	      0.00000000	      0.00000000	      1.90156430	    -14.30327738	     -4.09966776	     43.46622144	     90.00000001	      0.00000000	      0.00000000
      1.17000000	     10.69541715	      0.79941608	     -4.33703676	     -0.23836219	      0.98133258	      0.26902237	     12.63570563	     -3.03384284	     -9.68065103	     46.11360161	     -4.69264170	      0.80483418	     16.45245673	     -5.29817203	     -7.55342877	    -12.42813300	      6.43101047	    -21.52338761	      8.49228111	     -4.21551099	      0.14821827	     18.69147595	     32.48038804	     -7.55342877	    -24.49792145	      1.08344480	     -4.78546096	    -10.10322829	     -9.76588006	      6.49355026	     30.97033929	     90.00000001	      0.00000000	      0.00000000	      2.58970958	    -14.60090264	     -4.17275727	     44.17184517	     90.00000001	      0.00000000	      0.00000000
      1.18000000	     11.06533177	      0.49081458	     -4.03484199	     -0.22425456	      0.98048402	      0.26938906	     12.74907730	     -2.42687142	    -10.15979268	     42.34571313	     -4.60286294	      0.73907212	     16.59134695	     -4.35457821	     -7.55172385	    -14.24632252	      6.16512515	    -20.99201691	      7.61425792	     -4.06031286	      0.13289387	     19.64474171	     33.34647071	     -7.55172385	    -24.88225384	      1.49562997	     -5.08436723	    -10.40855408	     -9.40292226	      6.04041495	     30.65096568	     90.00000001	      0.00000000	      0.00000000	      3.08207788	    -14.94953850	     -4.33221871	     45.19178915	     90.00000001	      0.00000000	      0.00000000
      1.19000000	     11.12907242	      0.53918578	     -3.89115629	     -0.21046549	      0.97863032	      0.26964074	     13.35564876	     -2.26865860	    -10.82569419	     38.75977915	     -4.62891812	      0.67648576	     16.56928014	     -3.12017431	     -7.54996048	    -15.43328244	      6.27834803	    -20.85778009	      7.23348340	     -4.03231554	      0.12624810	     20.26779801	     33.59973697	     -7.54996048	    -24.92683597	      1.51114920	     -5.27980298	    -10.80223332	     -9.07951182	      5.72838087	     30.49525710	     90.00000001	      0.00000000	      0.00000000	      3.69045169	    -15.26500759	     -4.39040009	     46.04658850	     90.00000001	      0.00000000	      0.00000000
      1.20000000	     11.21893445	      0.65283027	     -3.76301582	     -0.19659556	      0.97645532	      0.27001320	     13.85112328	     -2.19281312	    -11.72459271	     35.02496889	     -4.73120980	      0.61130103	     16.59725372	     -1.30254291	     -7.54773925	    -16.62424900	      6.43745980	    -20.76164365	      6.92175127	     -3.99678540	      0.12080735	     20.91528855	     33.86133102	     -7.54773925	    -24.98771738	      1.43647338	     -5.51031666	    -11.16527763	     -8.72409562	      5.39358481	     30.37646015	     90.00000001	      0.00000000	      0.00000000	      4.26340538	    -15.60207540	     -4.45292599	     46.87755632	     90.00000001	      0.00000000	      0.00000000
      1.21000000	     11.24008889	      0.87629288	     -3.65392295	     -0.18280283	      0.97385249	      0.27033999	     14.39945340	     -2.28260616	    -12.86193356	     31.28687040	     -4.83254089	      0.54605890	     16.67100358	      1.26609545	     -7.54439932	    -17.67869148	      6.70988489	    -20.64885777	      6.71202448	     -3.98678593	      0.11714693	     21.60179060	     34.14900517	     -7.54439932	    -24.97404746	      1.25060297	     -5.76341381	    -11.48976281	     -8.37411303	      5.05944214	     30.24896498	     90.00000001	      0.00000000	      0.00000000	      4.83691962	    -15.93774492	     -4.47112707	     47.69235172	     90.00000001	      0.00000000	      0.00000000
      1.22000000	     10.98626593	      1.28147143	     -3.67375659	     -0.16941886	      0.97060449	      0.27062882	     15.19542802	     -2.54633567	    -13.13169994	     27.57472990	     -4.45440704	      0.48126983	     16.36920153	      2.81145421	     -7.54347127	    -18.30855391	      7.26489177	    -20.42505269	      6.64701129	     -4.14488073	      0.11601223	     22.42990984	     34.14696099	     -7.54347127	    -24.70773305	      0.85445086	     -5.95802675	    -11.71501089	     -8.04855185	      4.98211722	     29.97748656	     90.00000001	      0.00000000	      0.00000000	      5.40547525	    -16.22897608	     -4.56091626	     48.46544349	     90.00000001	      0.00000000	      0.00000000
      1.23000000	     11.33390064	      1.27882831	     -3.55866426	     -0.15531142	      0.96808072	      0.27144765	     15.06210223	     -2.31727127	    -14.49243611	     23.52454701	     -4.55364619	      0.41058080	     16.36488094	      5.94031504	     -7.54165935	    -19.76732498	      7.19051498	    -20.51894253	      6.48795857	     -3.98734162	      0.11323624	     23.18355870	     34.41907188	     -7.54165935	    -25.05300311	      0.83670378	     -6.17512218	    -11.94097414	     -7.67598246	      4.56079230	     29.86948154	     90.00000001	      0.00000000	      0.00000000	      5.97855180	    -16.54984461	     -4.65222682	     49.22197249	     90.00000001	      0.00000000	      0.00000000
      1.24000000	     10.92153245	      1.93726992	     -3.60572178	     -0.14204767	      0.96411507	      0.27169410	     16.02704037	     -2.85672125	    -14.83427631	     20.09757630	     -4.16212158	      0.35076888	     15.90411432	      7.53649201	     -7.54103604	    -20.08445350	      8.06211147	    -20.40202073	      6.59734327	     -4.37208731	      0.11514536	     23.81323788	     34.32006582	     -7.54103604	    -24.61750935	      0.17532995	     -6.53018162	    -12.14451873	     -7.37689365	      4.49777932	     29.83799023	     90.00000001	      0.00000000	      0.00000000	      6.49679104	    -16.89847877	     -4.69220151	     49.80755650	     90.00000001	      0.00000000	      0.00000000
